<svg xmlns="http://www.w3.org/2000/svg" width="33.354" height="41.667" viewBox="0 0 33.354 41.667">
  <g id="_2133056_document_eps_file_format_pdf_icon" data-name="2133056_document_eps_file_format_pdf_icon" transform="translate(-51.3 -6)">
    <path id="Path_687" data-name="Path 687" d="M84.434,15.35,75.35,6.2a.665.665,0,0,0-.473-.2H58.119a4.779,4.779,0,0,0-4.587,4.95V29.217H51.3V41.6h2.232v1.117a4.789,4.789,0,0,0,4.587,4.95H80.068a4.779,4.779,0,0,0,4.587-4.95V15.892A.752.752,0,0,0,84.434,15.35ZM74.65,7.533l7.9,7.967h-4.3a3.613,3.613,0,0,1-3.6-3.617Zm8.62,35.184a3.339,3.339,0,0,1-3.2,3.458H58.119a3.339,3.339,0,0,1-3.2-3.458V41.6H70.152c2.974,0,5.377-2.775,5.377-6.192s-2.412-6.192-5.377-6.192H54.917V10.95a3.339,3.339,0,0,1,3.2-3.458H73.265v4.392a5.051,5.051,0,0,0,4.986,5.108h5.019ZM55.585,38.534v-6.25h2.338a2.2,2.2,0,0,1,1.581.533,1.861,1.861,0,0,1,.57,1.408,1.82,1.82,0,0,1-.57,1.408,2.263,2.263,0,0,1-1.581.533H56.6v2.367H55.585Zm5.727,0v-6.25h2.02a2.549,2.549,0,0,1,1.89.742,2.593,2.593,0,0,1,.725,1.908v.95a2.613,2.613,0,0,1-.725,1.908,2.549,2.549,0,0,1-1.89.742h-2.02Zm9.5-3.5v.833h-2.46v2.667H67.325v-6.25h3.911v.833H68.344v1.908h2.469Z" fill="#ed1c24"/>
    <path id="Path_688" data-name="Path 688" d="M118.575,333.392a1.126,1.126,0,0,0,.285-.783,1.147,1.147,0,0,0-.285-.792,1.1,1.1,0,0,0-.855-.317H116.4v2.208h1.32A1.138,1.138,0,0,0,118.575,333.392Z" transform="translate(-59.796 -298.375)" fill="#ed1c24"/>
    <path id="Path_689" data-name="Path 689" d="M187.7,331.5h-1v4.583h1a1.438,1.438,0,0,0,1.165-.508,1.97,1.97,0,0,0,.432-1.308v-.958a1.962,1.962,0,0,0-.432-1.3A1.438,1.438,0,0,0,187.7,331.5Z" transform="translate(-124.369 -298.375)" fill="#ed1c24"/>
  </g>
</svg>
