<svg xmlns="http://www.w3.org/2000/svg" xmlns:xlink="http://www.w3.org/1999/xlink" width="14" height="14" viewBox="0 0 14 14">
  <defs>
    <clipPath id="clip-path">
      <path id="Path_716" data-name="Path 716" d="M14,0V14H0V0Z"/>
    </clipPath>
  </defs>
  <g id="_3669366_copyright_ic_icon" data-name="3669366_copyright_ic_icon" clip-path="url(#clip-path)">
    <path id="Path_715" data-name="Path 715" d="M9.833,4a5.833,5.833,0,1,0,5.833,5.833A5.832,5.832,0,0,0,9.833,4Zm0,10.5A4.667,4.667,0,1,1,14.5,9.833,4.673,4.673,0,0,1,9.833,14.5ZM8.713,9.171a1.537,1.537,0,0,1,.175-.507,1.014,1.014,0,0,1,.344-.359,1,1,0,0,1,.522-.134.976.976,0,0,1,.379.076.921.921,0,0,1,.5.519,1.137,1.137,0,0,1,.079.373h1.044a2.087,2.087,0,0,0-.16-.752,1.746,1.746,0,0,0-.411-.589,1.807,1.807,0,0,0-.63-.382,2.335,2.335,0,0,0-.814-.137,2.309,2.309,0,0,0-.989.2,1.972,1.972,0,0,0-.7.537,2.256,2.256,0,0,0-.417.79,3.292,3.292,0,0,0-.134.954v.16a3.3,3.3,0,0,0,.137.957,2.218,2.218,0,0,0,.417.788,1.983,1.983,0,0,0,.7.534,2.332,2.332,0,0,0,.992.2,2.159,2.159,0,0,0,.77-.134,2.053,2.053,0,0,0,.63-.37,1.781,1.781,0,0,0,.432-.548,1.613,1.613,0,0,0,.175-.671H10.711a.831.831,0,0,1-.087.338.815.815,0,0,1-.21.265.981.981,0,0,1-.306.172,1.079,1.079,0,0,1-.353.058,1.018,1.018,0,0,1-.522-.137A1.03,1.03,0,0,1,8.885,11a1.53,1.53,0,0,1-.175-.51,3.442,3.442,0,0,1-.044-.575v-.16A3.5,3.5,0,0,1,8.713,9.171Z" transform="translate(-2.833 -2.833)"/>
  </g>
</svg>
