<svg xmlns="http://www.w3.org/2000/svg" width="10.999" height="10.07" viewBox="0 0 10.999 10.07">
  <g id="_icons" transform="translate(-2 -2.684)">
    <g id="Group_209" data-name="Group 209" transform="translate(2 2.684)">
      <path id="Path_717" data-name="Path 717" d="M17.057,3.683a1.655,1.655,0,0,0-3.024-.055L11.5,9.291a3.221,3.221,0,0,0-.22,1.595l.22,1.21a.581.581,0,0,0,.33.385.331.331,0,0,0,.22.055.42.42,0,0,0,.275-.11l1.045-.66A2.614,2.614,0,0,0,14.418,10.5l2.529-5.663A1.1,1.1,0,0,0,17.057,3.683Zm-3.519,6.488a2.239,2.239,0,0,1-.66.77l-.385.22-.055-.385a2.047,2.047,0,0,1,.11-.99l1.924-4.4.99.385Zm2.529-5.718-.11.275-.99-.385.11-.275a.528.528,0,0,1,.495-.33.331.331,0,0,1,.22.055.663.663,0,0,1,.275.275h0A.465.465,0,0,1,16.067,4.452Z" transform="translate(-6.17 -2.684)"/>
      <path id="Path_718" data-name="Path 718" d="M2.55,16.1h2.2a.55.55,0,0,0,0-1.1H2.55a.55.55,0,0,0,0,1.1Z" transform="translate(-2 -8.228)"/>
      <path id="Path_719" data-name="Path 719" d="M5.849,19H2.55a.55.55,0,1,0,0,1.1h3.3a.55.55,0,1,0,0-1.1Z" transform="translate(-2 -10.029)"/>
    </g>
  </g>
</svg>
