<svg xmlns="http://www.w3.org/2000/svg" width="16.562" height="18.93" viewBox="0 0 16.562 18.93">
  <g id="_2318454_address_book_contact_contact_book_contacts_icon" data-name="2318454_address book_contact_contact book_contacts_icon" transform="translate(-106.8 -85.7)">
    <g id="Group_171" data-name="Group 171" transform="translate(107.589 85.7)">
      <path id="Path_674" data-name="Path 674" d="M136.272,104.63H120.5v-3.942h1.573v2.363h12.62V87.279h-12.62v3.152H120.5V85.7h15.772Z" transform="translate(-120.5 -85.7)" fill="#5e5e61"/>
    </g>
    <g id="Group_172" data-name="Group 172" transform="translate(106.8 93.589)">
      <rect id="Rectangle_751" data-name="Rectangle 751" width="2.368" height="1.579" transform="translate(0)" fill="#5e5e61"/>
    </g>
    <g id="Group_173" data-name="Group 173" transform="translate(106.8 97.531)">
      <rect id="Rectangle_752" data-name="Rectangle 752" width="2.368" height="1.579" transform="translate(0 0)" fill="#5e5e61"/>
    </g>
    <g id="Group_174" data-name="Group 174" transform="translate(106.8 89.642)">
      <rect id="Rectangle_753" data-name="Rectangle 753" width="2.368" height="1.579" transform="translate(0)" fill="#5e5e61"/>
    </g>
    <g id="Group_175" data-name="Group 175" transform="translate(107.589 95.952)">
      <rect id="Rectangle_754" data-name="Rectangle 754" width="1.579" height="2.368" transform="translate(0 0)" fill="#5e5e61"/>
    </g>
    <g id="Group_176" data-name="Group 176" transform="translate(107.589 92.01)">
      <rect id="Rectangle_755" data-name="Rectangle 755" width="1.579" height="2.368" transform="translate(0 0)" fill="#5e5e61"/>
    </g>
    <g id="Group_177" data-name="Group 177" transform="translate(112.315 90.425)">
      <path id="Path_675" data-name="Path 675" d="M205.658,174.016a3.158,3.158,0,1,1,3.158-3.158A3.163,3.163,0,0,1,205.658,174.016Zm0-4.731a1.579,1.579,0,1,0,1.579,1.579A1.581,1.581,0,0,0,205.658,169.285Z" transform="translate(-202.5 -167.7)" fill="#5e5e61"/>
    </g>
    <g id="Group_178" data-name="Group 178" transform="translate(111.525 95.168)">
      <path id="Path_676" data-name="Path 676" d="M196.695,253.942h-1.579a2.368,2.368,0,0,0-4.737,0H188.8a3.947,3.947,0,0,1,7.895,0Z" transform="translate(-188.8 -250)" fill="#5e5e61"/>
    </g>
  </g>
</svg>
