<svg xmlns="http://www.w3.org/2000/svg" width="34" height="34" viewBox="0 0 34 34">
  <g id="Group_205" data-name="Group 205" transform="translate(-473 -457)">
    <circle id="Ellipse_152" data-name="Ellipse 152" cx="17" cy="17" r="17" transform="translate(473 457)" fill="#5356e1"/>
    <g id="_352067_phone_icon" data-name="352067_phone_icon" transform="translate(481.433 464.933)">
      <path id="Path_572" data-name="Path 572" d="M17.5,2H11.785A1.786,1.786,0,0,0,10,3.785V15.922a1.786,1.786,0,0,0,1.785,1.785H17.5a1.786,1.786,0,0,0,1.785-1.785V3.785A1.786,1.786,0,0,0,17.5,2ZM14.641,16.993a1.071,1.071,0,1,1,1.071-1.071A1.069,1.069,0,0,1,14.641,16.993Zm3.213-2.856H11.428v-10h6.426Z" transform="translate(-6.43 -1.286)" fill="#fff"/>
      <path id="Path_573" data-name="Path 573" d="M0,0H17.135V17.135H0Z" fill="none"/>
    </g>
  </g>
</svg>
