<svg xmlns="http://www.w3.org/2000/svg" width="19.5" height="20" viewBox="0 0 19.5 20">
  <path id="_8675259_fluent_rename_regular_icon" data-name="8675259_fluent_rename_regular_icon" d="M9.75,2h4a.75.75,0,0,1,.1,1.493l-.1.007H12.5v17h1.245a.75.75,0,0,1,.743.648l.007.1a.75.75,0,0,1-.648.743l-.1.007h-4a.75.75,0,0,1-.1-1.493l.1-.007H11V3.5H9.75a.75.75,0,0,1-.743-.648L9,2.75a.75.75,0,0,1,.648-.743L9.75,2h0Zm8.5,3A3.253,3.253,0,0,1,21.5,8.246l0,7.5A3.249,3.249,0,0,1,18.436,19l-.186,0H13.505V17.5h4.8A1.749,1.749,0,0,0,20,15.752l0-7.5A1.753,1.753,0,0,0,18.245,6.5h-4.74V5ZM10,5V6.5H5.25A1.75,1.75,0,0,0,3.5,8.247v7.5A1.75,1.75,0,0,0,5.25,17.5H10V19H5.25A3.25,3.25,0,0,1,2,15.751v-7.5A3.25,3.25,0,0,1,5.25,5Z" transform="translate(-2 -2)" fill="#5356e1"/>
</svg>
