<svg xmlns="http://www.w3.org/2000/svg" width="27.087" height="27.678" viewBox="0 0 27.087 27.678">
  <g id="_2995009_moon_space_night_astronomy_cloud_icon" data-name="2995009_moon_space_night_astronomy_cloud_icon" transform="translate(-357.422 -205.154)">
    <path id="Path_67" data-name="Path 67" d="M10.462,0A10.461,10.461,0,0,0,2.393,17.12a10.468,10.468,0,0,0,11.584,1.166,10.623,10.623,0,0,1-1.124-1.164A10.46,10.46,0,0,1,13.544.465,10.446,10.446,0,0,0,10.462,0Z" transform="translate(360.156 216.14) rotate(-40)" fill="none" stroke="#edf1fe" stroke-width="1"/>
    <path id="Path_68" data-name="Path 68" d="M.075,0C.049.074.024.149,0,.223" transform="translate(363.064 221.006) rotate(-40)" fill="none" stroke="#02005c" stroke-linecap="round" stroke-linejoin="round" stroke-width="1"/>
    <path id="Path_69" data-name="Path 69" d="M.111,8.94A10.464,10.464,0,0,0,15.69,19.522a10.464,10.464,0,0,1,0-18.123A10.466,10.466,0,0,0,1.309,5.391" transform="translate(358.17 215.966) rotate(-40)" fill="none" stroke="#f9fbfc" stroke-linecap="round" stroke-linejoin="round" stroke-width="1"/>
  </g>
</svg>
