<svg xmlns="http://www.w3.org/2000/svg" width="16.8" height="11.954" viewBox="0 0 16.8 11.954">
  <path id="_3586360_email_envelope_mail_send_icon" data-name="3586360_email_envelope_mail_send_icon" d="M23.749,32.871a.342.342,0,0,0,.015-.1V21.458a.34.34,0,0,0-.016-.1s0-.009,0-.013a.325.325,0,0,0-.054-.1l0-.006,0,0a.3.3,0,0,0-.086-.069l-.007,0a.268.268,0,0,0-.1-.026H7.237a.272.272,0,0,0-.1.027l-.005,0a.292.292,0,0,0-.087.07l0,0s0,0,0,.006a.326.326,0,0,0-.054.1s0,.009,0,.013a.34.34,0,0,0-.016.1V32.774a.343.343,0,0,0,.016.1l0,.013a.326.326,0,0,0,.055.1l0,.006,0,0a.306.306,0,0,0,.031.03l.014.013a.265.265,0,0,0,.041.025l.01.006a.271.271,0,0,0,.115.026H23.472a.268.268,0,0,0,.115-.026l.016-.009a.293.293,0,0,0,.035-.022l.017-.015a.278.278,0,0,0,.028-.027l0,0,0-.006a.326.326,0,0,0,.054-.1A.123.123,0,0,0,23.749,32.871ZM7.549,22.183l4.92,4.911-4.92,4.951Zm10.085,4.671a.282.282,0,0,0-.059.047c-.006.008-.009.018-.014.026l-2.2,2.192L8.01,21.778H22.718Zm-4.731.673,2.264,2.26a.274.274,0,0,0,.394,0L17.8,27.555l4.919,4.9H8.006Zm5.329-.4,4.948-4.939V32.05Z" transform="translate(-6.964 -21.139)" fill="#585858"/>
</svg>
