<svg xmlns="http://www.w3.org/2000/svg" width="22.762" height="17.704" viewBox="0 0 22.762 17.704">
  <path id="_8664907_folder_open_document_icon" data-name="8664907_folder_open_document_icon" d="M22.628,41.417,18.834,49a1.274,1.274,0,0,1-1.166.7H2.529A2.529,2.529,0,0,1,0,47.175V34.529A2.529,2.529,0,0,1,2.529,32H7.172a2.53,2.53,0,0,1,1.789.741L10.9,34.529h5.536a2.529,2.529,0,0,1,2.529,2.529v1.265h-1.9V37.058a.633.633,0,0,0-.632-.632H10.116l-2.5-2.344a.622.622,0,0,0-.447-.185H2.529a.633.633,0,0,0-.632.632V45.91l2.812-5.623a1.264,1.264,0,0,1,1.132-.7H21.5A1.265,1.265,0,0,1,22.628,41.417Z" transform="translate(0 -32)" fill="#6563ff"/>
</svg>
