<svg xmlns="http://www.w3.org/2000/svg" width="24" height="23" viewBox="0 0 24 23">
  <g id="Group_205" data-name="Group 205" transform="translate(-885 -186)">
    <ellipse id="Ellipse_149" data-name="Ellipse 149" cx="12" cy="11.5" rx="12" ry="11.5" transform="translate(885 186)" fill="#edf1fe"/>
    <g id="_7351045_edit_user_profile_avatar_icon" data-name="7351045_edit_user_profile_avatar_icon" transform="translate(889.312 189.149)">
      <path id="Path_628" data-name="Path 628" d="M2,18.63C2,16,4.4,15,6.719,15a6.923,6.923,0,0,1,2.21.341" transform="translate(0 -5.048)" fill="none" stroke="#5356e1" stroke-linecap="round" stroke-width="0.8"/>
      <path id="Path_629" data-name="Path 629" d="M10.774,5.373c0,1.48-.169,3.127-2.541,3.127S5.692,6.853,5.692,5.373a2.613,2.613,0,0,1,2.541-2.68A2.613,2.613,0,0,1,10.774,5.373Z" transform="translate(-1.514)" fill="none" stroke="#5356e1" stroke-width="0.8"/>
      <path id="Path_630" data-name="Path 630" d="M14.322,15.83l2.934-3.479.384-.1,1.044.88-.036.4L15.714,17l-1.534.407Z" transform="translate(-4.996 -3.92)" fill="none" stroke="#5356e1" stroke-width="0.8"/>
      <path id="Path_631" data-name="Path 631" d="M18.463,13.383l1.428,1.27" transform="translate(-6.753 -4.385)" fill="none" stroke="#5356e1" stroke-width="0.8"/>
    </g>
  </g>
</svg>
