<svg id="Component_238_3" data-name="Component 238 – 3" xmlns="http://www.w3.org/2000/svg" width="23" height="23" viewBox="0 0 23 23">
  <circle id="Ellipse_164" data-name="Ellipse 164" cx="11.5" cy="11.5" r="11.5" fill="#e8e8ff"/>
  <path id="_9040435_info_lg_icon" data-name="9040435_info_lg_icon" d="M9.708,6.075l-3.024.379-.108.5.6.108c.387.093.464.232.38.619L6.576,12.26C6.321,13.443,6.716,14,7.643,14a2.729,2.729,0,0,0,1.933-.789l.116-.549a1.464,1.464,0,0,1-.9.325c-.363,0-.494-.255-.4-.7L9.708,6.075ZM9.8,3.32A1.32,1.32,0,1,1,8.479,2,1.32,1.32,0,0,1,9.8,3.32Z" transform="translate(3.35 3.5)"/>
</svg>
