<svg xmlns="http://www.w3.org/2000/svg" width="28" height="28" viewBox="0 0 28 28">
  <g id="_1161954_instagram_icon" data-name="1161954_instagram_icon" transform="translate(-3.7 -5.2)">
    <ellipse id="Ellipse_143" data-name="Ellipse 143" cx="2.504" cy="2.504" rx="2.504" ry="2.504" transform="translate(15.082 16.81)" fill="#807f7f"/>
    <path id="Path_606" data-name="Path 606" d="M26.576,19.2h-6.26A3.11,3.11,0,0,0,18.1,20a3.11,3.11,0,0,0-.8,2.22v6.26a3.137,3.137,0,0,0,.854,2.276,3.208,3.208,0,0,0,2.219.8h6.2a3.11,3.11,0,0,0,2.219-.8,2.915,2.915,0,0,0,.854-2.22v-6.26a3.208,3.208,0,0,0-.8-2.22A3.047,3.047,0,0,0,26.576,19.2Zm-3.13,10.016a3.87,3.87,0,0,1,0-7.74,3.87,3.87,0,1,1,0,7.74Zm4.041-7a.911.911,0,1,1,.911-.911A.9.9,0,0,1,27.487,22.216Z" transform="translate(-5.86 -6.033)" fill="#807f7f"/>
    <path id="Path_607" data-name="Path 607" d="M17.7,5.2a14,14,0,1,0,14,14A13.99,13.99,0,0,0,17.7,5.2Zm7.455,17.3A4.511,4.511,0,0,1,23.9,25.745a4.429,4.429,0,0,1-3.187,1.2h-6.2a4.429,4.429,0,0,1-3.187-1.2A4.288,4.288,0,0,1,10.074,22.5v-6.26A4.212,4.212,0,0,1,14.513,11.8h6.26a4.2,4.2,0,0,1,4.382,4.439V22.5Z" fill="#807f7f"/>
  </g>
</svg>
