<svg xmlns="http://www.w3.org/2000/svg" width="13.301" height="9.504" viewBox="0 0 13.301 9.504">
  <g id="mail" transform="translate(-2 -5.993)">
    <path id="Path_712" data-name="Path 712" d="M14.826,6H2.437a.37.37,0,0,0-.1,0l-.081.033a.309.309,0,0,0-.071.048.318.318,0,0,0-.071.067l-.029.029a.171.171,0,0,0,0,.043.513.513,0,0,0-.038.09A.613.613,0,0,0,2,6.424v8.6a.475.475,0,0,0,.475.475H14.826a.475.475,0,0,0,.475-.475V6.471A.475.475,0,0,0,14.826,6ZM8.65,10.181,4,6.946h9.923Zm-5.7,4.366V7.379l5.43,3.757h0a.717.717,0,0,0,.086.043H8.5a.518.518,0,0,0,.147.043h0a.475.475,0,0,0,.195-.048h.033L14.351,7.8v6.75Z" transform="translate(0 0)"/>
  </g>
</svg>
