<svg xmlns="http://www.w3.org/2000/svg" width="15" height="15" viewBox="0 0 15 15">
  <path id="_8686773_ic_fluent_arrow_expand_regular_icon" data-name="8686773_ic_fluent_arrow_expand_regular_icon" d="M3.536,3A.536.536,0,0,0,3,3.536V7.821a.536.536,0,1,0,1.071,0V4.829L7.443,8.2A.536.536,0,0,0,8.2,7.443L4.829,4.071H7.821A.536.536,0,1,0,7.821,3Zm0,15A.536.536,0,0,1,3,17.464V13.179a.536.536,0,0,1,1.071,0v2.992L7.443,12.8a.536.536,0,0,1,.758.758L4.829,16.929H7.821a.536.536,0,1,1,0,1.071ZM18,3.536A.536.536,0,0,0,17.464,3H13.179a.536.536,0,0,0,0,1.071h2.992L12.8,7.443a.536.536,0,0,0,.758.758l3.371-3.371V7.821a.536.536,0,1,0,1.071,0ZM17.464,18A.536.536,0,0,0,18,17.464V13.179a.536.536,0,1,0-1.071,0v2.992L13.557,12.8a.536.536,0,0,0-.758.758l3.371,3.371H13.179a.536.536,0,1,0,0,1.071Z" transform="translate(-3 -3)" fill="#707070"/>
</svg>
