<svg xmlns="http://www.w3.org/2000/svg" width="11.901" height="11.902" viewBox="0 0 11.901 11.902">
  <path id="_9110984_call_phone_icon" data-name="9110984_call_phone_icon" d="M7.338,4.531a.907.907,0,0,1-.07,1.24,3.243,3.243,0,0,1-.259.3c-.049.051-.087.09-.167.17L6.386,6.7a4.012,4.012,0,0,0,1.14,1.668A4,4,0,0,0,9.193,9.508l.456-.456a3.4,3.4,0,0,1,.567-.492.881.881,0,0,1,1.144,0,17.787,17.787,0,0,1,2.1,1.646,1.607,1.607,0,0,1,0,2.191c-.185.2-.419.429-.7.7-1.673,1.674-5.2.655-7.91-2.053S1.136,4.794,2.806,3.123c.3-.3.4-.4.69-.691a1.616,1.616,0,0,1,2.2,0A19,19,0,0,1,7.338,4.531ZM10.49,9.893l-.456.456c-.775.776-2.1.114-3.349-1.141S4.77,6.633,5.545,5.858L6,5.4c.073-.073.106-.107.146-.149.055-.057.1-.108.135-.152A17.715,17.715,0,0,0,4.864,3.28a.445.445,0,0,0-.533,0c-.288.284-.382.378-.681.681C2.576,5.036,3.4,7.886,5.7,10.193s5.153,3.128,6.235,2.046q.408-.394.665-.665a.425.425,0,0,0,0-.547,16.7,16.7,0,0,0-1.815-1.415A4.054,4.054,0,0,0,10.49,9.893Z" transform="translate(-1.995 -1.999)" fill-rule="evenodd"/>
</svg>
