<svg xmlns="http://www.w3.org/2000/svg" width="20" height="20" viewBox="0 0 20 20">
  <path id="_8675189_ic_fluent_lock_shield_regular_icon" data-name="8675189_ic_fluent_lock_shield_regular_icon" d="M10,2a4,4,0,0,1,4,4V8h1.75A2.25,2.25,0,0,1,18,10.25V11a1.385,1.385,0,0,0-.9.329l-.107.1a5.247,5.247,0,0,1-.5.457V10.25a.75.75,0,0,0-.75-.75H4.25a.75.75,0,0,0-.75.75v9.5a.75.75,0,0,0,.75.75h9.888a6.023,6.023,0,0,0,1.54,1.5H4.25A2.25,2.25,0,0,1,2,19.75v-9.5A2.25,2.25,0,0,1,4.25,8H6V6A4,4,0,0,1,10,2Zm8.284,10.122A4.489,4.489,0,0,0,21.6,13.667a.4.4,0,0,1,.392.333l.008.084v2.5a5.289,5.289,0,0,1-3.874,5.394.385.385,0,0,1-.253,0A5.26,5.26,0,0,1,14,16.85l0-.265v-2.5a.409.409,0,0,1,.4-.417,4.5,4.5,0,0,0,3.318-1.545A.389.389,0,0,1,18.284,12.122ZM10,13.5A1.5,1.5,0,1,1,8.5,15,1.5,1.5,0,0,1,10,13.5Zm0-10A2.5,2.5,0,0,0,7.5,6V8h5V6A2.5,2.5,0,0,0,10,3.5Z" transform="translate(-2 -2)" fill="#0db201"/>
</svg>
