<svg xmlns="http://www.w3.org/2000/svg" width="22.073" height="22.073" viewBox="0 0 22.073 22.073">
  <g id="_8656147_user_network_friends_connection_communication_social_media_icon" data-name="8656147_user network_friends_connection_communication_social media_icon" transform="translate(-1.5 -1.5)">
    <path id="Path_613" data-name="Path 613" d="M17,15a1,1,0,1,0,1,1A1,1,0,0,0,17,15Zm-2,1a2,2,0,1,1,2,2A2,2,0,0,1,15,16Z" transform="translate(0.852 0.789)" fill="#8e8c8c" fill-rule="evenodd"/>
    <path id="Path_614" data-name="Path 614" d="M7,5A1,1,0,1,0,8,6,1,1,0,0,0,7,5ZM5,6A2,2,0,1,1,7,8,2,2,0,0,1,5,6Z" transform="translate(0.221)" fill="#8e8c8c" fill-rule="evenodd"/>
    <path id="Path_615" data-name="Path 615" d="M17,18a3.5,3.5,0,0,0-3.344,2.463l-.955-.3a4.5,4.5,0,0,1,8.6,0l-.955.3A3.5,3.5,0,0,0,17,18Z" transform="translate(1.073 1.073)" fill="#8e8c8c" fill-rule="evenodd"/>
    <path id="Path_616" data-name="Path 616" d="M7,8a3.5,3.5,0,0,0-3.344,2.464l-.955-.3a4.5,4.5,0,0,1,8.6,0l-.955.3A3.5,3.5,0,0,0,7,8Z" transform="translate(0 0.337)" fill="#8e8c8c" fill-rule="evenodd"/>
    <path id="Path_617" data-name="Path 617" d="M17,12.5A4.5,4.5,0,1,0,21.5,17,4.5,4.5,0,0,0,17,12.5ZM11.5,17A5.5,5.5,0,1,1,17,22.5,5.5,5.5,0,0,1,11.5,17Z" transform="translate(1.073 1.073)" fill="#8e8c8c" fill-rule="evenodd"/>
    <path id="Path_618" data-name="Path 618" d="M7,2.5A4.5,4.5,0,1,0,11.5,7,4.5,4.5,0,0,0,7,2.5ZM1.5,7A5.5,5.5,0,1,1,7,12.5,5.5,5.5,0,0,1,1.5,7Z" fill="#8e8c8c" fill-rule="evenodd"/>
    <path id="Path_619" data-name="Path 619" d="M6,15.5A1.5,1.5,0,1,0,7.5,17,1.5,1.5,0,0,0,6,15.5ZM3.5,17A2.5,2.5,0,1,1,6,19.5,2.5,2.5,0,0,1,3.5,17Z" transform="translate(0 1.073)" fill="#8e8c8c" fill-rule="evenodd"/>
    <path id="Path_620" data-name="Path 620" d="M18,5.5A1.5,1.5,0,1,1,16.5,7,1.5,1.5,0,0,1,18,5.5ZM20.5,7A2.5,2.5,0,1,0,18,9.5,2.5,2.5,0,0,0,20.5,7Z" transform="translate(1.073)" fill="#8e8c8c" fill-rule="evenodd"/>
    <path id="Path_621" data-name="Path 621" d="M8,16.5h4v1H8Z" transform="translate(0.41 0.805)" fill="#8e8c8c" fill-rule="evenodd"/>
    <path id="Path_622" data-name="Path 622" d="M16,6.5H12v1h4Z" transform="translate(0.663 0.268)" fill="#8e8c8c" fill-rule="evenodd"/>
    <path id="Path_623" data-name="Path 623" d="M10.854,10.146l3,3-.707.707-3-3Z" transform="translate(0.536 0.536)" fill="#8e8c8c" fill-rule="evenodd"/>
  </g>
</svg>
