<svg xmlns="http://www.w3.org/2000/svg" width="15.6" height="15.6" viewBox="0 0 15.6 15.6">
  <g id="Group_208" data-name="Group 208" transform="translate(-1 -1)">
    <g id="search_funds_x2C__magnifying_glass_x2C__magnifier_x2C__loupe_1_" transform="translate(1 1)">
      <g id="analysis_2_">
        <g id="Group_207" data-name="Group 207">
          <g id="Group_206" data-name="Group 206">
            <g id="Group_204" data-name="Group 204" transform="translate(10.329 10.329)">
              <path id="Path_706" data-name="Path 706" d="M22.28,22.279a.959.959,0,0,1,.212-.155L21.308,20.94a.26.26,0,0,0-.368.368l1.181,1.181A1.056,1.056,0,0,1,22.28,22.279Z" transform="translate(-20.865 -20.864)" fill="#fff"/>
              <path id="Path_707" data-name="Path 707" d="M25.62,26.945a1.293,1.293,0,0,1-.919-.381l-1.82-1.82a1.3,1.3,0,0,1,0-1.839,1.372,1.372,0,0,1,1.838,0l1.82,1.82a1.3,1.3,0,0,1-.919,2.219Zm-1.82-3.89a.773.773,0,0,0-.552,1.321l1.82,1.82a.8.8,0,0,0,1.1,0,.78.78,0,0,0,0-1.1l-1.82-1.82A.782.782,0,0,0,23.8,23.056Z" transform="translate(-21.65 -21.674)" fill="#fff"/>
            </g>
            <g id="Group_205" data-name="Group 205" transform="translate(5.98 7.339)">
              <path id="Path_708" data-name="Path 708" d="M12.76,18.929a.26.26,0,1,1,0-.52,4.393,4.393,0,0,0,4.229-3.11.26.26,0,0,1,.5.152A4.911,4.911,0,0,1,12.76,18.929Z" transform="translate(-12.5 -15.115)" fill="#fff"/>
            </g>
            <path id="Path_709" data-name="Path 709" d="M7.24,13.48a6.24,6.24,0,1,1,6.24-6.24A6.247,6.247,0,0,1,7.24,13.48Zm0-11.96a5.72,5.72,0,1,0,5.72,5.72A5.727,5.727,0,0,0,7.24,1.52Z" transform="translate(-1 -1)" fill="#fff"/>
          </g>
        </g>
      </g>
    </g>
    <circle id="Ellipse_167" data-name="Ellipse 167" cx="0.26" cy="0.26" r="0.26" transform="translate(11.66 6.98)" fill="#fff"/>
  </g>
</svg>
