<svg xmlns="http://www.w3.org/2000/svg" width="16.125" height="18.676" viewBox="0 0 16.125 18.676">
  <path id="_7787575_security_protection_secure_shield_lock_icon" data-name="7787575_security_protection_secure_shield_lock_icon" d="M39.94,15.766a15.726,15.726,0,0,1-3.267-.8,7,7,0,0,1-3-1.821l-.054-.054-.054-.054c-.054,0-.054-.054-.107-.054s-.054-.054-.107-.054-.054-.054-.107-.054-.054-.054-.107-.054H32.5c-.054,0-.054,0-.107.054-.054,0-.054,0-.107.054-.054,0-.054.054-.107.054s-.054.054-.107.054l-.054.054-.054.054a7.73,7.73,0,0,1-3,1.821,18.911,18.911,0,0,1-3.267.8,1.1,1.1,0,0,0-.964,1.071,23.275,23.275,0,0,0,1.178,8.3,10.692,10.692,0,0,0,3.267,4.552,7.09,7.09,0,0,0,1.714,1.071c.7.375,1.553.964,2.356.643a11.126,11.126,0,0,0,5.248-4.017,11.663,11.663,0,0,0,1.178-2.3,23.275,23.275,0,0,0,1.178-8.3,1.029,1.029,0,0,0-.91-1.018Zm-2.2,8.622a8.315,8.315,0,0,1-4.874,4.927A8.315,8.315,0,0,1,28,24.388a20.318,20.318,0,0,1-1.018-6.641A18.285,18.285,0,0,0,29.764,17a10.251,10.251,0,0,0,3.106-1.66A10.251,10.251,0,0,0,35.977,17a16.775,16.775,0,0,0,2.785.75,20.318,20.318,0,0,1-1.018,6.641Zm-5.3-1.5L30.3,21.335a1.071,1.071,0,1,0-1.285,1.714l2.946,2.142a1.113,1.113,0,0,0,1.607-.375c1.178-1.446,2.41-2.892,3.588-4.338a1.066,1.066,0,0,0-1.66-1.339l-3.053,3.749Z" transform="translate(-24.73 -12.82)" fill="#5356e1"/>
</svg>
