<svg xmlns="http://www.w3.org/2000/svg" width="20.776" height="19.693" viewBox="0 0 20.776 19.693">
  <g id="_7088674_social_network_connection_link_friends_social_media_icon" data-name="7088674_social network_connection_link_friends_social media_icon" transform="translate(-18.54 -29.367)">
    <path id="Path_672" data-name="Path 672" d="M36.246,42.928a3.062,3.062,0,0,0-2.6,1.46l-4.082-2.478a5.857,5.857,0,0,0-.286-6.1l3.163-2.353a2.44,2.44,0,1,0-.315-.43l-3.167,2.357a5.872,5.872,0,1,0,.327,6.985l4.115,2.5a3.066,3.066,0,1,0,2.847-1.935Zm-2.091-12.9a1.824,1.824,0,1,1-1.824,1.824,1.824,1.824,0,0,1,1.824-1.824ZM21.921,43.815V42.461a1.8,1.8,0,0,1,1.8-1.8H25.1a1.8,1.8,0,0,1,1.8,1.8v1.354A5.314,5.314,0,0,1,21.921,43.815Zm5.511-.323V42.461A2.337,2.337,0,0,0,25.1,40.127H23.722a2.337,2.337,0,0,0-2.334,2.334v1.031a5.34,5.34,0,1,1,6.046,0Zm8.813,5.043A2.537,2.537,0,1,1,38.783,46a2.537,2.537,0,0,1-2.537,2.537Z" fill="#5e5e61"/>
    <path id="Path_673" data-name="Path 673" d="M113.632,163.21H112.8a1.4,1.4,0,0,0-1.394,1.395v1.542a1.4,1.4,0,0,0,1.394,1.394h.828a1.4,1.4,0,0,0,1.395-1.394V164.6A1.4,1.4,0,0,0,113.632,163.21Zm.862,2.937a.863.863,0,0,1-.862.862H112.8a.863.863,0,0,1-.861-.862V164.6a.862.862,0,0,1,.861-.861h.828a.862.862,0,0,1,.862.861Z" transform="translate(-88.808 -127.988)" fill="#5e5e61"/>
  </g>
</svg>
