<svg xmlns="http://www.w3.org/2000/svg" width="18" height="16.364" viewBox="0 0 18 16.364">
  <g id="icons" transform="translate(-1 -2)">
    <g id="statistics" transform="translate(1 2)">
      <path id="Path_706" data-name="Path 706" d="M4.273,12H2.636A1.641,1.641,0,0,0,1,13.636v4.909a1.641,1.641,0,0,0,1.636,1.636H4.273a1.641,1.641,0,0,0,1.636-1.636V13.636A1.641,1.641,0,0,0,4.273,12Z" transform="translate(-1 -3.818)" fill="#5e5e61"/>
      <path id="Path_707" data-name="Path 707" d="M12.273,2H10.636A1.641,1.641,0,0,0,9,3.636V16.727a1.641,1.641,0,0,0,1.636,1.636h1.636a1.641,1.641,0,0,0,1.636-1.636V3.636A1.641,1.641,0,0,0,12.273,2Z" transform="translate(-2.455 -2)" fill="#5e5e61"/>
      <path id="Path_708" data-name="Path 708" d="M20.273,8H18.636A1.641,1.641,0,0,0,17,9.636v8.182a1.641,1.641,0,0,0,1.636,1.636h1.636a1.641,1.641,0,0,0,1.636-1.636V9.636A1.641,1.641,0,0,0,20.273,8Z" transform="translate(-3.909 -3.091)" fill="#5e5e61"/>
    </g>
  </g>
</svg>
