<svg xmlns="http://www.w3.org/2000/svg" width="34" height="34" viewBox="0 0 34 34">
  <g id="Group_205" data-name="Group 205" transform="translate(-473 -322)">
    <circle id="Ellipse_150" data-name="Ellipse 150" cx="17" cy="17" r="17" transform="translate(473 322)" fill="#00aefc"/>
    <g id="_1530079_check_location_map_marker_pin_icon" data-name="1530079_check_location_map_marker_pin_icon" transform="translate(457.943 312.038)">
      <path id="Path_571" data-name="Path 571" d="M39.212,24.449a7.089,7.089,0,0,0-1.187-3.938L39.2,19.306l-.8-.779-7.063,7.224-1.919-2.625-.9.657,2.7,3.687,6.006-6.143a5.987,5.987,0,0,1,.871,3.122,6.069,6.069,0,0,1-4.768,5.907.556.556,0,0,0-.406.353l-.754,2.061h-.252l-.791-2.081a.558.558,0,0,0-.4-.346,6.042,6.042,0,1,1,4.479-11.05l.582-.949a7.156,7.156,0,1,0-5.6,13.014l.557,1.462c-1.672.121-4.285.526-4.285,1.88,0,1.877,5.023,1.932,5.6,1.932s5.6-.054,5.6-1.932c0-1.362-2.643-1.764-4.314-1.882l.529-1.446A7.193,7.193,0,0,0,39.212,24.449ZM36.5,34.7c-.346.323-1.958.818-4.443.818s-4.1-.5-4.442-.818a7.357,7.357,0,0,1,3.544-.795l.377.993a.558.558,0,0,0,.521.359h0a.557.557,0,0,0,.52-.366l.362-.987A7.369,7.369,0,0,1,36.5,34.7Z" fill="#fff"/>
    </g>
  </g>
</svg>
