<svg xmlns="http://www.w3.org/2000/svg" width="34" height="34" viewBox="0 0 34 34">
  <g id="Group_204" data-name="Group 204" transform="translate(-473 -277)">
    <circle id="Ellipse_149" data-name="Ellipse 149" cx="17" cy="17" r="17" transform="translate(473 277)" fill="#e24553"/>
    <g id="mail_email_e-mail_letter" data-name="mail email e-mail letter" transform="translate(477.437 281.182)">
      <path id="Path_22" data-name="Path 22" d="M20.543,13a.7.7,0,0,0-.7.7v5.614a.7.7,0,0,1-.7.7H5.105a.7.7,0,0,1-.7-.7V13.7a.7.7,0,0,0-1.4,0v5.614a2.108,2.108,0,0,0,2.105,2.105H19.14a2.108,2.108,0,0,0,2.105-2.105V13.7A.7.7,0,0,0,20.543,13Z" transform="translate(0 -1.79)" fill="#fff"/>
      <path id="Path_23" data-name="Path 23" d="M11.759,15.28a.7.7,0,0,0,.842,0l8.287-6.217A.7.7,0,0,0,21.1,8.2a2.147,2.147,0,0,0-.414-.582A2.105,2.105,0,0,0,19.2,7H5.162a2.105,2.105,0,0,0-1.488.618,2.147,2.147,0,0,0-.414.582.7.7,0,0,0,.211.863ZM5.162,8.4H19.2a.632.632,0,0,1,.2,0L12.18,13.842,4.966,8.4A.632.632,0,0,1,5.162,8.4Z" transform="translate(-0.057)" fill="#fff"/>
    </g>
  </g>
</svg>
