<svg xmlns="http://www.w3.org/2000/svg" width="34" height="34" viewBox="0 0 34 34">
  <g id="Group_209" data-name="Group 209" transform="translate(-473 -457)">
    <circle id="Ellipse_152" data-name="Ellipse 152" cx="17" cy="17" r="17" transform="translate(473 457)" fill="#5356e1"/>
    <g id="_216469_star_icon_1_" data-name="216469_star_icon (1)" transform="translate(477.789 462)">
      <g id="Group_79" data-name="Group 79">
        <path id="Path_575" data-name="Path 575" d="M16.855,20.966a1.506,1.506,0,0,1-.646-.146.831.831,0,0,1-.1-.051L12,18.426,7.891,20.77a1.163,1.163,0,0,1-.106.053,1.524,1.524,0,0,1-1.521-.143,1.5,1.5,0,0,1-.586-1.509l.957-4.642-1.6-1.457L3.138,11.347a.756.756,0,0,1-.078-.082,1.493,1.493,0,0,1,.82-2.5.87.87,0,0,1,.1-.018l4.7-.521,1.946-4.31a.692.692,0,0,1,.06-.11,1.5,1.5,0,0,1,2.618,0c.021.036.041.073.06.112l1.948,4.312,4.7.521a.8.8,0,0,1,.1.017,1.5,1.5,0,0,1,.818,2.506c-.024.026-.051.054-.078.078l-3.5,3.184.957,4.632a1.514,1.514,0,0,1-.59,1.519A1.488,1.488,0,0,1,16.855,20.966ZM8.706,14.4c-.039.182-.466,2.246-.845,4.082L11.5,16.407a1,1,0,0,1,.99,0l3.643,2.075-.849-4.1a1,1,0,0,1,.308-.942l3.1-2.822-4.168-.461a1,1,0,0,1-.8-.584L12,5.748,10.273,9.569a1.007,1.007,0,0,1-.8.584L5.3,10.614l3.1,2.822A1,1,0,0,1,8.706,14.4Z" fill="#fff"/>
      </g>
    </g>
  </g>
</svg>
