<svg xmlns="http://www.w3.org/2000/svg" width="34" height="34" viewBox="0 0 34 34">
  <g id="Group_211" data-name="Group 211" transform="translate(-473 -548)">
    <circle id="Ellipse_154" data-name="Ellipse 154" cx="17" cy="17" r="17" transform="translate(473 548)" fill="#1eaefc"/>
    <path id="_7787531_earth_globe_world_flag_country_icon" data-name="7787531_earth_globe_world_flag_country_icon" d="M24,15a8.993,8.993,0,1,0,6.366,2.634A9,9,0,0,0,24,15Zm0,2.118a6.95,6.95,0,0,1,3.441.9c-.159.212-.318.424-.424.582-.318.424-.476.688-.688.794-.212.159-.371.159-.953.212a2.036,2.036,0,0,0-1.006.265,2.747,2.747,0,0,0-1.165,1.165c-.159.318-.212.688-.371,1.059a2.077,2.077,0,0,1-.424.741c-.318.318-.318-.265-.371-.529a6.3,6.3,0,0,0-.9-1.906,1.826,1.826,0,0,0-.424-.476,1.683,1.683,0,0,0-1.429-.053,5.623,5.623,0,0,0-1.006.212A7.087,7.087,0,0,1,24,17.118Zm0,13.765A6.869,6.869,0,0,1,17.118,24a6.225,6.225,0,0,1,.159-1.429l2.435-.582a4.042,4.042,0,0,1,.476,1.482,1.62,1.62,0,0,0,.159.794,1.649,1.649,0,0,0,.741.847,2.1,2.1,0,0,0,1.376.265,1.836,1.836,0,0,0,1.006-.529,8.48,8.48,0,0,0,1.165-1.376,2.786,2.786,0,0,0,.424-1.218.612.612,0,0,1,.635-.635,2.965,2.965,0,0,0,1.853-.582,5.082,5.082,0,0,0,1.165-1.271,3.706,3.706,0,0,1,.424-.529,6.9,6.9,0,0,1,1.8,4.659,6.776,6.776,0,0,1-.476,2.541,8.4,8.4,0,0,1-1.059-.371,6.2,6.2,0,0,0-1.694-.476,16.871,16.871,0,0,0-2.806.318c-1.006.106-.953,1.324-.741,2.065a4.524,4.524,0,0,0,.688,1.588,4.071,4.071,0,0,0,.953.953A4.222,4.222,0,0,1,24,30.882Zm4.394-1.641a1.274,1.274,0,0,1-1.059-.159,2.134,2.134,0,0,1-.741-.688,3.144,3.144,0,0,1-.212-.424l1.218-.159c.265.106.476.159.741.265s.741.159.953.371C29.4,28.447,28.5,29.188,28.394,29.241Z" transform="translate(466 541)" fill="#fff"/>
  </g>
</svg>
