<svg xmlns="http://www.w3.org/2000/svg" width="28" height="28" viewBox="0 0 28 28">
  <path id="_7693327_twitter_social_media_logo_apps_icon" data-name="7693327_twitter_social media_logo_apps_icon" d="M14,0A14,14,0,1,0,28,14,14,14,0,0,0,14,0Zm6.12,10.863c.016,1.044-.122,6.264-5.076,8.526a8.833,8.833,0,0,1-8.7-.557,6.531,6.531,0,0,0,4.589-1.305,3.252,3.252,0,0,1-2.9-2.184A2.685,2.685,0,0,0,9.39,15.26a3.217,3.217,0,0,1-2.442-3.109,2.317,2.317,0,0,0,1.34.348,3.172,3.172,0,0,1-.9-4.159,9.383,9.383,0,0,0,6.52,3.309,3.666,3.666,0,0,1-.082-.786,3.166,3.166,0,0,1,3.132-3.132,3.508,3.508,0,0,1,2.249.974,4.944,4.944,0,0,0,2.036-.713,3.107,3.107,0,0,1-1.3,1.74,7,7,0,0,0,1.71-.487A6.49,6.49,0,0,1,20.12,10.863Z" fill="#807f7f"/>
</svg>
