<svg xmlns="http://www.w3.org/2000/svg" width="20.222" height="21" viewBox="0 0 20.222 21">
  <path id="_9113581_user_lock_solid_icon" data-name="9113581_user_lock_solid_icon" d="M13.778,5a5.454,5.454,0,0,0-3.056,9.965A7.8,7.8,0,0,0,6,22.111H7.556a6.241,6.241,0,0,1,6.222-6.222,6.017,6.017,0,0,1,2.645.623,4.818,4.818,0,0,1,.855-1.323c-.155-.077-.315-.139-.472-.207A5.453,5.453,0,0,0,13.778,5Zm0,1.556a3.889,3.889,0,1,1-3.889,3.889A3.851,3.851,0,0,1,13.778,6.556Zm7,8.556a3.12,3.12,0,0,0-3.111,3.111v1.556H15.333V26H26.222V19.778H23.889V18.222A3.12,3.12,0,0,0,20.778,15.111Zm0,1.556a1.56,1.56,0,0,1,1.556,1.556v1.556H19.222V18.222A1.56,1.56,0,0,1,20.778,16.667Zm-3.889,4.667h7.778v3.111H16.889Z" transform="translate(-6 -5)" fill="#5356e1"/>
</svg>
