<svg xmlns="http://www.w3.org/2000/svg" width="34" height="34" viewBox="0 0 34 34">
  <g id="Group_204" data-name="Group 204" transform="translate(-473 -412)">
    <path id="Path_628" data-name="Path 628" d="M17,0A17,17,0,1,1,0,17,17,17,0,0,1,17,0Z" transform="translate(473 412)" fill="#009550"/>
    <g id="_843786_whatsapp_icon" data-name="843786_whatsapp_icon" transform="translate(477.237 416.803)">
      <path id="Path_682" data-name="Path 682" d="M18.919,6.02A8.632,8.632,0,0,0,5.336,16.433L4.112,20.905l4.575-1.2a8.623,8.623,0,0,0,4.124,1.05h0a8.634,8.634,0,0,0,6.1-14.736ZM12.814,19.3h0a7.162,7.162,0,0,1-3.651-1L8.9,18.143l-2.715.712.725-2.647-.171-.271A7.173,7.173,0,1,1,12.814,19.3Z" fill="#fff" fill-rule="evenodd"/>
      <path id="Path_683" data-name="Path 683" d="M24.756,22.539c-.216-.108-1.276-.63-1.473-.7s-.341-.108-.485.108-.557.7-.683.846-.252.162-.467.054a5.889,5.889,0,0,1-1.734-1.07,6.5,6.5,0,0,1-1.2-1.494c-.126-.216-.013-.333.095-.44s.216-.252.323-.378a1.472,1.472,0,0,0,.216-.36.4.4,0,0,0-.018-.378c-.054-.108-.485-1.169-.665-1.6s-.353-.363-.485-.37-.27-.008-.413-.008a.792.792,0,0,0-.575.27,2.419,2.419,0,0,0-.755,1.8,4.194,4.194,0,0,0,.881,2.231A9.612,9.612,0,0,0,21,24.3a12.38,12.38,0,0,0,1.229.454,2.955,2.955,0,0,0,1.358.085,2.221,2.221,0,0,0,1.456-1.025,1.8,1.8,0,0,0,.126-1.025C25.115,22.7,24.971,22.647,24.756,22.539Z" transform="translate(-8.007 -8.613)" fill="#fff" fill-rule="evenodd"/>
    </g>
  </g>
</svg>
