<svg xmlns="http://www.w3.org/2000/svg" width="14" height="14" viewBox="0 0 14 14">
  <g id="world_www_web_website" data-name="world www web website" transform="translate(-3 -3)">
    <path id="Path_714" data-name="Path 714" d="M10,3a7,7,0,1,0,7,7,7,7,0,0,0-7-7Zm3.6,9.105A13.133,13.133,0,0,0,13.769,10,12.772,12.772,0,0,0,13.6,7.895c1.448.533,2.326,1.341,2.326,2.105S15.013,11.615,13.6,12.105ZM4.077,10c0-.792.91-1.588,2.321-2.105A13.133,13.133,0,0,0,6.231,10,12.772,12.772,0,0,0,6.4,12.105C4.955,11.572,4.077,10.765,4.077,10Zm3.5-5.385a7.646,7.646,0,0,0-.9,2.057,7.641,7.641,0,0,0-2.057.9A5.923,5.923,0,0,1,7.577,4.615ZM4.615,12.423a7.878,7.878,0,0,0,2.326.969H6.99a12.6,12.6,0,0,0,3.01.377,9.131,9.131,0,0,0,.948-.032.54.54,0,1,0-.075-1.077q-.425.032-.872.032a11.264,11.264,0,0,1-2.434-.253A11.485,11.485,0,0,1,7.308,10c0-3.489,1.422-5.923,2.692-5.923.538,0,1.077.409,1.556,1.152a.537.537,0,1,0,.91-.571.463.463,0,0,0-.038-.054,5.923,5.923,0,0,1,2.956,2.972,8.045,8.045,0,0,0-2.412-.991h0A12.5,12.5,0,0,0,10,6.231a9.131,9.131,0,0,0-.948.032A.54.54,0,1,0,9.128,7.34q.431-.032.872-.032a11.265,11.265,0,0,1,2.434.253A11.485,11.485,0,0,1,12.692,10c0,3.489-1.422,5.923-2.692,5.923-.538,0-1.077-.409-1.556-1.152a.538.538,0,1,0-.91.571.463.463,0,0,0,.038.054,5.923,5.923,0,0,1-2.956-2.972Zm7.808,2.962a7.646,7.646,0,0,0,.9-2.073,7.641,7.641,0,0,0,2.057-.883A5.923,5.923,0,0,1,12.423,15.385Z" transform="translate(0 0)"/>
  </g>
</svg>
