<svg xmlns="http://www.w3.org/2000/svg" width="13" height="11.818" viewBox="0 0 13 11.818">
  <path id="_9110928_folder_create_icon" data-name="9110928_folder_create_icon" d="M11.636,12.455V11.273h1.182v1.182H14v1.182H12.818v1.182H11.636V13.636H10.455V12.455ZM2.182,6.545H12.818V5.364H7.5a1.224,1.224,0,0,1-1-.569c-.041-.051-.171-.22-.192-.245-.221-.279-.353-.367-.58-.367H2.182ZM12.818,7.727H2.182v4.727h6.5v1.182h-6.5A1.182,1.182,0,0,1,1,12.455V4.182A1.182,1.182,0,0,1,2.182,3H5.727a1.785,1.785,0,0,1,1.506.815c.028.036.154.2.185.238.093.115.112.129.082.13h5.317A1.182,1.182,0,0,1,14,5.364v4.727H12.818Z" transform="translate(-1 -3)" fill="#8d8d8d" fill-rule="evenodd"/>
</svg>
