<svg id="_34._Job" data-name="34. Job" xmlns="http://www.w3.org/2000/svg" width="11.989" height="12" viewBox="0 0 11.989 12">
  <path id="Path_707" data-name="Path 707" d="M7.875,20h-3a.375.375,0,0,1,0-.75H7.5a.75.75,0,0,0-.75-.75H6.4a1.7,1.7,0,0,1-.944-.286,2.764,2.764,0,0,0-3.487.345L.64,19.89a.375.375,0,1,1-.53-.53l1.331-1.331a3.513,3.513,0,0,1,4.433-.439.947.947,0,0,0,.528.16H6.75a1.5,1.5,0,0,1,1.5,1.5v.375A.375.375,0,0,1,7.875,20Z" transform="translate(0 -10.625)" fill="#fff"/>
  <path id="Path_708" data-name="Path 708" d="M16.25,6.25h-4.5A.75.75,0,0,1,11,5.5V4.375A.375.375,0,0,1,11.375,4h5.25A.375.375,0,0,1,17,4.375V5.5A.75.75,0,0,1,16.25,6.25Zm-4.5-1.5V5.5h4.5V4.75Z" transform="translate(-6.875 -2.5)" fill="#fff"/>
  <path id="Path_709" data-name="Path 709" d="M16.125,11h-3A1.125,1.125,0,0,1,12,9.875v-1.5A.375.375,0,0,1,12.375,8h4.5a.375.375,0,0,1,.375.375v1.5A1.125,1.125,0,0,1,16.125,11ZM12.75,8.75V9.875a.375.375,0,0,0,.375.375h3a.375.375,0,0,0,.375-.375V8.75Z" transform="translate(-7.5 -5)" fill="#fff"/>
  <path id="Path_710" data-name="Path 710" d="M17.375,2.25h-3A.375.375,0,0,1,14,1.875v-.75A1.125,1.125,0,0,1,15.125,0h1.5A1.125,1.125,0,0,1,17.75,1.125v.75A.375.375,0,0,1,17.375,2.25ZM14.75,1.5H17V1.125A.375.375,0,0,0,16.625.75h-1.5a.375.375,0,0,0-.375.375Z" transform="translate(-8.75)" fill="#fff"/>
  <path id="Path_711" data-name="Path 711" d="M8.375,22.174a.375.375,0,0,1-.265-.64,1.644,1.644,0,0,1,1.17-.485H12.5a1.13,1.13,0,0,0,.9-.45l2.651-3.534a1.131,1.131,0,0,0-1.135.346l-1.758,2.01a.375.375,0,1,1-.565-.494l1.759-2.01a1.881,1.881,0,0,1,2.451-.325.419.419,0,0,1,.177.259.392.392,0,0,1-.054.3L14,21.049a1.884,1.884,0,0,1-1.5.75H9.28a.9.9,0,0,0-.64.265A.375.375,0,0,1,8.375,22.174Z" transform="translate(-5 -10.174)" fill="#fff"/>
</svg>
