<svg xmlns="http://www.w3.org/2000/svg" width="17.813" height="17.813" viewBox="0 0 17.813 17.813">
  <g id="Group_182" data-name="Group 182" transform="translate(-25.093 -207.093)">
    <g id="Path_587" data-name="Path 587" transform="translate(25.093 207.093)" fill="none">
      <path d="M8.907,0a9.009,9.009,0,0,1,8.432,6.029,8.447,8.447,0,0,1,.475,2.878A8.907,8.907,0,1,1,8.907,0Z" stroke="none"/>
      <path d="M 8.90673828125 0.9999980926513672 C 4.546948432922363 0.9999980926513672 0.9999980926513672 4.546948432922363 0.9999980926513672 8.90673828125 C 0.9999980926513672 13.26652812957764 4.546948432922363 16.81347846984863 8.90673828125 16.81347846984863 C 13.26652812957764 16.81347846984863 16.81347846984863 13.26652812957764 16.81347846984863 8.90673828125 C 16.81347846984863 7.823078155517578 16.60321807861328 6.897038459777832 16.40643882751465 6.391737937927246 L 16.40329742431641 6.38355827331543 C 15.79055786132812 4.768388748168945 14.76767826080322 3.411138534545898 13.44523811340332 2.458548545837402 C 12.12057876586914 1.504358291625977 10.55118846893311 0.9999980926513672 8.90673828125 0.9999980926513672 M 8.90673828125 -1.9073486328125e-06 C 12.70916843414307 -1.9073486328125e-06 15.955078125 2.382758140563965 17.33827781677246 6.028858184814453 C 17.60799789428711 6.721478462219238 17.81347846984863 7.790108680725098 17.81347846984863 8.90673828125 C 17.81347846984863 13.8257884979248 13.8257884979248 17.81347846984863 8.90673828125 17.81347846984863 C 3.987678527832031 17.81347846984863 -1.9073486328125e-06 13.8257884979248 -1.9073486328125e-06 8.90673828125 C -1.9073486328125e-06 3.987678527832031 3.987678527832031 -1.9073486328125e-06 8.90673828125 -1.9073486328125e-06 Z" stroke="none" fill="#898989"/>
    </g>
    <g id="_8666628_user_check_icon" data-name="8666628_user_check_icon" transform="translate(30.332 212.268)">
      <path id="Path_588" data-name="Path 588" d="M7.22,17.488v-.829A1.659,1.659,0,0,0,5.561,15h-2.9A1.659,1.659,0,0,0,1,16.659v.829" transform="translate(-1 -10.024)" fill="none" stroke="#898989" stroke-linecap="round" stroke-linejoin="round" stroke-width="1"/>
      <circle id="Ellipse_142" data-name="Ellipse 142" cx="1.659" cy="1.659" r="1.659" transform="translate(1.451 0)" fill="none" stroke="#898989" stroke-linecap="round" stroke-linejoin="round" stroke-width="1"/>
      <path id="Path_589" data-name="Path 589" d="M17,9.829l.829.829L19.488,9" transform="translate(-10.366 -6.512)" fill="none" stroke="#898989" stroke-linecap="round" stroke-linejoin="round" stroke-width="1"/>
    </g>
  </g>
</svg>
