<svg xmlns="http://www.w3.org/2000/svg" width="13.344" height="13.344" viewBox="0 0 13.344 13.344">
  <path id="Path_544" data-name="Path 544" d="M8.018,11.59v4.023a.69.69,0,0,0,.69.69h6.447a.69.69,0,0,0,.69-.69V12.625a.23.23,0,1,0-.46,0v2.989a.23.23,0,0,1-.23.23H8.708a.23.23,0,0,1-.23-.23V11.59a.23.23,0,0,0-.46,0Zm1.619-1.265H3.19a.23.23,0,0,1-.23-.23V7.337a.23.23,0,0,0-.46,0V10.1a.69.69,0,0,0,.69.69H8.938v4.368a.23.23,0,0,0,.23.23h5.527a.23.23,0,0,0,.23-.23V9.626a.23.23,0,0,0-.23-.23H10.786a.23.23,0,1,0,0,.46h3.679v5.068H9.4V10.785h.239a.69.69,0,0,0,.69-.69V8.937h4.828a.23.23,0,0,1,.23.23v2.309a.23.23,0,1,0,.46,0V9.167a.689.689,0,0,0-.69-.69H10.326V3.649a.69.69,0,0,0-.69-.69H3.19a.69.69,0,0,0-.69.69V6.417a.23.23,0,1,0,.46,0V3.649a.23.23,0,0,1,.23-.23H9.637a.23.23,0,0,1,.23.23V10.1A.23.23,0,0,1,9.637,10.326Zm1.681,2.851h1.389l.5,1.15a.23.23,0,1,0,.421-.184l-1.408-3.219a.23.23,0,0,0-.421,0l-1.408,3.219a.23.23,0,1,0,.421.184Zm.2-.46h.987l-.493-1.128ZM9.407,4.109a.23.23,0,0,0-.23-.23H3.65a.23.23,0,0,0-.23.23V9.636a.23.23,0,0,0,.23.23H9.177a.23.23,0,0,0,.23-.23Zm-.46.23V9.406H3.879V4.338ZM7.6,8.51l.368.368A.23.23,0,0,0,8.3,8.554l-.34-.34a1.958,1.958,0,1,0-.353.3Zm.028-.622a1.5,1.5,0,1,0-.362.288l-.217-.217a.23.23,0,0,1,.325-.325l.254.254Z" transform="translate(-2.5 -2.959)" fill="#898989" fill-rule="evenodd"/>
</svg>
