<svg id="Group_65" data-name="Group 65" xmlns="http://www.w3.org/2000/svg" width="12.044" height="11.548" viewBox="0 0 12.044 11.548">
  <path id="Path_543" data-name="Path 543" d="M11.8,14.582a.97.97,0,0,1-.416-.094.535.535,0,0,1-.067-.033L8.669,12.946,6.024,14.455a.749.749,0,0,1-.068.034.981.981,0,0,1-.979-.092.969.969,0,0,1-.377-.972l.616-2.989L4.184,9.5,2.964,8.387a.487.487,0,0,1-.05-.053.961.961,0,0,1,.528-1.611.56.56,0,0,1,.066-.012l3.027-.336L7.787,3.6a.445.445,0,0,1,.039-.071.964.964,0,0,1,1.686,0c.014.023.026.047.039.072l1.254,2.777,3.027.336a.517.517,0,0,1,.067.011.964.964,0,0,1,.527,1.614c-.015.017-.033.035-.05.05l-2.253,2.05.616,2.983a.975.975,0,0,1-.38.978A.958.958,0,0,1,11.8,14.582ZM6.549,10.355c-.025.117-.3,1.446-.544,2.629l2.346-1.338a.643.643,0,0,1,.638,0l2.346,1.336-.547-2.643a.643.643,0,0,1,.2-.607l2-1.817-2.684-.3a.644.644,0,0,1-.516-.376L8.67,4.782,7.558,7.242a.648.648,0,0,1-.516.376l-2.684.3,2,1.817A.641.641,0,0,1,6.549,10.355Z" transform="translate(-2.648 -3.034)" fill="#fff"/>
</svg>
